<svg width="130" height="130" viewBox="0 0 130 130" fill="none" xmlns="http://www.w3.org/2000/svg">
<g clip-path="url(#clip0)" filter="url(#filter0_d)">
<path d="M31.1875 32.3542V64.4375C31.1875 68.3792 32.8375 71.9083 35.4958 74.4292L73.0333 110.042C74.6375 111.6 76.8833 112.563 79.3125 112.563C81.8333 112.563 84.125 111.554 85.775 109.858L117.858 77.775C119.554 76.125 120.562 73.8333 120.562 71.3125C120.562 68.8833 119.6 66.6375 118.042 65.0333L82.4292 27.4958C79.9083 24.8375 76.3792 23.1875 72.4375 23.1875H40.3542C35.3125 23.1875 31.1875 27.3125 31.1875 32.3542Z" fill="#F2A154"/>
<path d="M31.1875 32.3542V64.4375C31.1875 68.3792 32.8375 71.9083 35.4958 74.4292L73.0333 110.042C74.6375 111.6 76.8833 112.563 79.3125 112.563C81.8333 112.563 84.125 111.554 85.775 109.858L117.858 77.775C119.554 76.125 120.562 73.8333 120.562 71.3125C120.562 68.8833 119.6 66.6375 118.042 65.0333L82.4292 27.4958C79.9083 24.8375 76.3792 23.1875 72.4375 23.1875H40.3542C35.3125 23.1875 31.1875 27.3125 31.1875 32.3542Z" fill="url(#paint0_linear)"/>
<path d="M61.1717 44.9583C61.1717 49.4867 57.4867 53.1717 52.9583 53.1717C48.43 53.1717 44.745 49.4867 44.745 44.9583C44.745 40.43 48.43 36.745 52.9583 36.745C57.4867 36.745 61.1717 40.43 61.1717 44.9583Z" fill="#F7F6E7"/>
<path d="M124 71.3125C124 74.6813 122.689 77.8483 120.306 80.2271L88.2225 112.31C85.8483 114.689 82.6813 116 79.3125 116C76.0767 116 73.0013 114.776 70.65 112.553L33.1217 76.9225C29.7117 73.6958 27.75 69.14 27.75 64.4375V32.3542C27.75 25.4013 33.4013 19.75 40.3542 19.75H72.4375C77.14 19.75 81.6913 21.7071 84.9225 25.1217L120.549 62.6454C122.776 65.0013 124 68.0767 124 71.3125ZM31.5 64.4375C31.5 67.3021 33.4192 72.0337 35.5 74L74 110C75.0633 111.004 77.8413 112.31 79.3125 112.31C80.8433 112.31 84.4229 110.582 85.5 109.5L118 77.5C120.122 75.3825 120.062 67.6817 118 65.5L82.5 27.5C80.5337 25.4192 76.8646 23.5 74 23.5H40.3542C37.1963 23.5 31.5 29.1963 31.5 32.3542L31.5 64.4375Z" fill="#FF6C00"/>
<path d="M64.4167 44.9584C64.4167 51.2742 59.2742 56.4167 52.9583 56.4167C46.6425 56.4167 41.5 51.2742 41.5 44.9584C41.5 38.6425 46.6425 33.5 52.9583 33.5C59.2742 33.5 64.4167 38.6425 64.4167 44.9584ZM46.375 44.9584C46.375 47.4838 50.4329 51.5417 52.9583 51.5417C55.4838 51.5417 59.5417 47.4838 59.5417 44.9584C59.5417 42.4329 55.4838 38.375 52.9583 38.375C50.4329 38.375 46.375 42.4329 46.375 44.9584Z" fill="#FF6C00"/>
<path d="M55.25 43.8125C55.25 45.71 53.71 47.25 51.8125 47.25H43.2188C27.1083 47.25 14 34.1417 14 18.0312C14 11.3992 19.3992 6 26.0312 6C28.0342 6 29.9867 6.19708 31.8521 6.58667C33.7129 6.97166 34.9137 8.81417 34.5104 10.6567C34.1208 12.5129 30.0825 14.8296 28.2217 14.44C26.8237 14.1467 25.3387 14 23.8125 14C20.9708 14 18.6562 16.3146 18.6562 19.1562C18.6562 31.4762 30.8988 41.5 43.2188 41.5H49.5938C51.4912 41.5 55.25 41.915 55.25 43.8125Z" fill="#2F4A4E"/>
<path d="M72.7799 83.2089L71.5645 84.4242L73.6568 86.5166L71.5714 88.602L69.4791 86.5097L65.1702 90.8186L63.6855 89.3339L61.5932 78.389L63.5612 76.421L69.9072 82.767L71.1226 81.5516L72.7799 83.2089ZM67.8218 84.8524L66.1093 83.1399C65.8239 82.8544 65.4211 82.4286 64.9009 81.8624C64.3807 81.2961 64.0837 80.9624 64.0101 80.8611L63.9548 80.9163C64.162 81.4642 64.3254 82.0373 64.4451 82.6358L65.3912 87.2831L67.8218 84.8524ZM74.4924 70.0059C75.1231 70.6366 75.4683 71.3639 75.5282 72.188C75.588 73.012 75.3556 73.8522 74.8308 74.7084L74.8722 74.7499C75.7883 74.0363 76.6538 73.668 77.4686 73.645C78.2788 73.6174 79.0177 73.9373 79.6852 74.6049C80.6566 75.5762 81.0617 76.6857 80.9005 77.9332C80.7348 79.1762 79.9982 80.4514 78.6908 81.7588C77.5952 82.8544 76.442 83.6439 75.2313 84.1273L73.4152 82.3112C74.0044 82.1179 74.596 81.8486 75.1898 81.5033C75.7837 81.158 76.3108 80.7552 76.7712 80.2949C77.4755 79.5905 77.876 78.9506 77.9727 78.3752C78.0694 77.7997 77.853 77.2473 77.3236 76.7179C76.8494 76.2437 76.32 76.101 75.7354 76.2898C75.1507 76.4785 74.4348 76.9964 73.5878 77.8435L72.8213 78.6099L71.1847 76.9734L71.965 76.1931C72.7476 75.4105 73.2172 74.7384 73.3737 74.1767C73.5302 73.6059 73.3599 73.0719 72.8627 72.5747C72.0985 71.8105 71.2377 71.9072 70.2801 72.8647C69.9487 73.1962 69.6656 73.5898 69.4308 74.0455C69.2006 74.4967 69.0119 75.0675 68.8645 75.758L66.4062 75.2747C66.664 73.691 67.4305 72.2616 68.7057 70.9865C69.7507 69.9414 70.7865 69.3292 71.8131 69.1496C72.8443 68.9655 73.7374 69.2509 74.4924 70.0059ZM85.6998 64.378C87.4629 66.1412 88.478 67.7363 88.745 69.1634C89.0166 70.5859 88.5517 71.898 87.3501 73.0995C86.1854 74.2642 84.8688 74.7061 83.4003 74.4253C81.9363 74.1399 80.3504 73.1432 78.6425 71.4353C76.8609 69.6537 75.8366 68.054 75.5696 66.6361C75.298 65.2136 75.7607 63.9039 76.9576 62.707C78.1223 61.5423 79.4435 61.1049 80.9213 61.3949C82.4036 61.6804 83.9964 62.6747 85.6998 64.378ZM80.7624 69.3154C82.0008 70.5537 82.9952 71.3363 83.7455 71.6632C84.4959 71.9808 85.1243 71.8864 85.6307 71.3801C86.1279 70.8829 86.2154 70.2522 85.8931 69.488C85.5709 68.7238 84.7975 67.7294 83.5729 66.5049C82.3346 65.2665 81.3333 64.4908 80.5691 64.1778C79.8049 63.8555 79.1765 63.9407 78.6839 64.4333C78.1821 64.9351 78.0947 65.5658 78.4215 66.3253C78.7438 67.0803 79.5241 68.077 80.7624 69.3154ZM95.7103 64.4631L94.3485 63.1012L93.3302 64.1194L92.0956 62.8848L93.1139 61.8666L92.1211 60.8738L91.1028 61.892L89.5246 60.3138L90.5428 59.2955L86.6226 55.3753L89.5246 52.4734C90.6955 51.3024 91.7859 50.6872 92.7957 50.6278C93.8139 50.5599 94.7388 50.9418 95.5703 51.7733C96.0625 52.2655 96.4146 52.8382 96.6268 53.4916C96.8389 54.145 96.8177 54.862 96.5631 55.6426C96.317 56.4148 95.7528 57.2421 94.8703 58.1246L94.043 58.9519L95.0358 59.9446L96.9959 57.9845L98.2305 59.2192L96.2704 61.1793L97.6323 62.5411L95.7103 64.4631ZM93.1011 56.7372C93.6442 56.1942 93.9793 55.6723 94.1066 55.1717C94.2424 54.6626 94.1024 54.2001 93.6866 53.7843C92.9144 53.0122 92.0192 53.1352 91.001 54.1534L90.1228 55.0317L92.4647 57.3736L93.1011 56.7372Z" fill="#FFEA86"/>
</g>
<defs>
<filter id="filter0_d" x="0" y="0" width="130" height="130" filterUnits="userSpaceOnUse" color-interpolation-filters="sRGB">
<feFlood flood-opacity="0" result="BackgroundImageFix"/>
<feColorMatrix in="SourceAlpha" type="matrix" values="0 0 0 0 0 0 0 0 0 0 0 0 0 0 0 0 0 0 127 0"/>
<feOffset dx="-4" dy="4"/>
<feGaussianBlur stdDeviation="5"/>
<feColorMatrix type="matrix" values="0 0 0 0 0 0 0 0 0 0 0 0 0 0 0 0 0 0 0.25 0"/>
<feBlend mode="normal" in2="BackgroundImageFix" result="effect1_dropShadow"/>
<feBlend mode="normal" in="SourceGraphic" in2="effect1_dropShadow" result="shape"/>
</filter>
<linearGradient id="paint0_linear" x1="20" y1="18.5" x2="110.5" y2="105.5" gradientUnits="userSpaceOnUse">
<stop stop-color="#F2A154"/>
<stop offset="1" stop-color="#EB5801"/>
</linearGradient>
<clipPath id="clip0">
<rect width="110" height="110" fill="white" transform="translate(14 116) rotate(-90)"/>
</clipPath>
</defs>
</svg>
