<svg width="27" height="31" viewBox="0 0 27 31" fill="none" xmlns="http://www.w3.org/2000/svg">
<path d="M26.5781 27.3672C26.5781 28.036 26.036 28.5781 25.3672 28.5781H24.1562V29.7891C24.1562 30.4579 23.6141 31 22.9453 31C22.2765 31 21.7344 30.4579 21.7344 29.7891V28.5781H20.5234C19.8546 28.5781 19.3125 28.036 19.3125 27.3672C19.3125 26.6984 19.8546 26.1562 20.5234 26.1562H21.7344V24.9453C21.7344 24.2765 22.2765 23.7344 22.9453 23.7344C23.6141 23.7344 24.1562 24.2765 24.1562 24.9453V26.1562H25.3672C26.036 26.1562 26.5781 26.6984 26.5781 27.3672ZM26.5781 8.47656V20.1016C26.5781 20.7704 26.036 21.3125 25.3672 21.3125C24.6984 21.3125 24.1562 20.7704 24.1562 20.1016V9.6875H21.7344V13.3203C21.7344 13.9891 21.1922 14.5312 20.5234 14.5312C19.8546 14.5312 19.3125 13.9891 19.3125 13.3203V9.6875H7.6875V13.3203C7.6875 13.9891 7.14536 14.5312 6.47656 14.5312C5.80776 14.5312 5.26562 13.9891 5.26562 13.3203V9.6875H2.84375V28.5781H15.6797C16.3485 28.5781 16.8906 29.1203 16.8906 29.7891C16.8906 30.4579 16.3485 31 15.6797 31H1.63281C0.964012 31 0.421875 30.4579 0.421875 29.7891V8.47656C0.421875 7.80776 0.964012 7.26562 1.63281 7.26562H5.3229C5.80395 3.1801 9.28733 0 13.5 0C17.7127 0 21.1961 3.1801 21.6771 7.26562H25.3672C26.036 7.26562 26.5781 7.80776 26.5781 8.47656ZM19.2313 7.26562C18.7687 4.52013 16.3749 2.42188 13.5 2.42188C10.6251 2.42188 8.23127 4.52013 7.76869 7.26562H19.2313Z" fill="#F7F6E7"/>
</svg>
