<svg width="266" height="38" viewBox="0 0 266 38" fill="none" xmlns="http://www.w3.org/2000/svg">
<path d="M6.08 32C5.49333 32 5 31.8 4.6 31.4C4.2 31 4 30.5067 4 29.92V2.84C4 2.22667 4.2 1.73333 4.6 1.36C5 0.959999 5.49333 0.759999 6.08 0.759999C6.69333 0.759999 7.18667 0.959999 7.56 1.36C7.96 1.73333 8.16 2.22667 8.16 2.84V14.32H26.72V2.84C26.72 2.22667 26.92 1.73333 27.32 1.36C27.72 0.959999 28.2133 0.759999 28.8 0.759999C29.4133 0.759999 29.9067 0.959999 30.28 1.36C30.6533 1.73333 30.84 2.22667 30.84 2.84V29.92C30.84 30.5067 30.6533 31 30.28 31.4C29.9067 31.8 29.4133 32 28.8 32C28.2133 32 27.72 31.8 27.32 31.4C26.92 31 26.72 30.5067 26.72 29.92V18H8.16V29.92C8.16 30.5067 7.96 31 7.56 31.4C7.18667 31.8 6.69333 32 6.08 32ZM45.1238 32C44.5371 32 44.0438 31.8 43.6438 31.4C43.2438 31 43.0438 30.5067 43.0438 29.92V2.84C43.0438 2.22667 43.2438 1.73333 43.6438 1.36C44.0438 0.959999 44.5371 0.759999 45.1238 0.759999H63.2038C63.8171 0.759999 64.3104 0.946666 64.6838 1.32C65.0571 1.66667 65.2438 2.13333 65.2438 2.72C65.2438 3.28 65.0571 3.73333 64.6838 4.08C64.3104 4.42666 63.8171 4.6 63.2038 4.6H47.2038V14.32H58.6838C59.2971 14.32 59.7904 14.5067 60.1638 14.88C60.5371 15.2267 60.7238 15.68 60.7238 16.24C60.7238 16.8 60.5371 17.2667 60.1638 17.64C59.7904 17.9867 59.2971 18.16 58.6838 18.16H47.2038V28.16H63.2038C63.8171 28.16 64.3104 28.3333 64.6838 28.68C65.0571 29.0267 65.2438 29.48 65.2438 30.04C65.2438 30.6267 65.0571 31.1067 64.6838 31.48C64.3104 31.8267 63.8171 32 63.2038 32H45.1238ZM77.2916 32C76.7049 32 76.2116 31.8 75.8116 31.4C75.4382 31 75.2516 30.5067 75.2516 29.92V2.84C75.2516 2.25333 75.4516 1.76 75.8516 1.36C76.2516 0.959999 76.7316 0.759999 77.2916 0.759999C77.8782 0.759999 78.3716 0.959999 78.7716 1.36C79.1716 1.76 79.3716 2.25333 79.3716 2.84V27.84H93.8516C94.4382 27.84 94.9316 28.04 95.3316 28.44C95.7316 28.84 95.9316 29.3333 95.9316 29.92C95.9316 30.5067 95.7316 31 95.3316 31.4C94.9316 31.8 94.4382 32 93.8516 32H77.2916ZM107.196 32C106.609 32 106.116 31.8 105.716 31.4C105.316 31 105.116 30.5067 105.116 29.92V2.84C105.116 2.22667 105.316 1.73333 105.716 1.36C106.116 0.959999 106.609 0.759999 107.196 0.759999C107.809 0.759999 108.302 0.959999 108.676 1.36C109.076 1.73333 109.276 2.22667 109.276 2.84V29.92C109.276 30.5067 109.076 31 108.676 31.4C108.302 31.8 107.809 32 107.196 32Z" fill="white"/>
<path d="M139.463 32C138.876 32 138.383 31.8 137.983 31.4C137.583 31 137.383 30.5067 137.383 29.92V2.84C137.383 2.22667 137.583 1.73333 137.983 1.36C138.383 0.959999 138.876 0.759999 139.463 0.759999C140.076 0.759999 140.569 0.959999 140.943 1.36C141.343 1.73333 141.543 2.22667 141.543 2.84V29.92C141.543 30.5067 141.343 31 140.943 31.4C140.569 31.8 140.076 32 139.463 32Z" fill="#F58634"/>
<path d="M170.502 16C170.298 16 170.13 15.934 169.998 15.802C169.866 15.67 169.8 15.502 169.8 15.298V2.644C169.8 2.44 169.866 2.272 169.998 2.14C170.13 2.008 170.298 1.942 170.502 1.942C170.706 1.942 170.874 2.008 171.006 2.14C171.138 2.272 171.204 2.44 171.204 2.644V8.26H179.988V2.644C179.988 2.44 180.054 2.272 180.186 2.14C180.318 2.008 180.486 1.942 180.69 1.942C180.894 1.942 181.062 2.008 181.194 2.14C181.326 2.272 181.392 2.44 181.392 2.644V15.298C181.392 15.502 181.326 15.67 181.194 15.802C181.062 15.934 180.894 16 180.69 16C180.486 16 180.318 15.934 180.186 15.802C180.054 15.67 179.988 15.502 179.988 15.298V9.52H171.204V15.298C171.204 15.502 171.138 15.67 171.006 15.802C170.874 15.934 170.706 16 170.502 16ZM191.882 16.09C190.91 16.09 190.046 15.88 189.29 15.46C188.546 15.028 187.958 14.434 187.526 13.678C187.106 12.922 186.896 12.058 186.896 11.086C186.896 10.102 187.094 9.238 187.49 8.494C187.898 7.738 188.456 7.144 189.164 6.712C189.872 6.28 190.688 6.064 191.612 6.064C192.524 6.064 193.316 6.274 193.988 6.694C194.672 7.102 195.2 7.672 195.572 8.404C195.944 9.136 196.13 9.97 196.13 10.906C196.13 11.098 196.07 11.254 195.95 11.374C195.83 11.482 195.674 11.536 195.482 11.536H188.21C188.282 12.184 188.48 12.76 188.804 13.264C189.128 13.756 189.554 14.146 190.082 14.434C190.61 14.71 191.21 14.848 191.882 14.848C192.314 14.848 192.746 14.776 193.178 14.632C193.622 14.476 193.976 14.284 194.24 14.056C194.372 13.948 194.522 13.894 194.69 13.894C194.858 13.882 195.002 13.924 195.122 14.02C195.278 14.164 195.356 14.32 195.356 14.488C195.368 14.656 195.302 14.8 195.158 14.92C194.762 15.256 194.258 15.538 193.646 15.766C193.034 15.982 192.446 16.09 191.882 16.09ZM191.612 7.306C190.688 7.306 189.926 7.594 189.326 8.17C188.726 8.734 188.366 9.472 188.246 10.384H194.834C194.738 9.472 194.402 8.734 193.826 8.17C193.262 7.594 192.524 7.306 191.612 7.306ZM205.071 16.09C204.147 16.09 203.319 15.874 202.587 15.442C201.855 14.998 201.273 14.398 200.841 13.642C200.421 12.886 200.211 12.034 200.211 11.086C200.211 10.126 200.427 9.268 200.859 8.512C201.303 7.756 201.903 7.162 202.659 6.73C203.415 6.286 204.267 6.064 205.215 6.064C206.163 6.064 207.009 6.286 207.753 6.73C208.509 7.162 209.103 7.756 209.535 8.512C209.979 9.268 210.207 10.126 210.219 11.086V15.316C210.219 15.52 210.153 15.688 210.021 15.82C209.889 15.94 209.721 16 209.517 16C209.313 16 209.145 15.94 209.013 15.82C208.881 15.688 208.815 15.52 208.815 15.316V14.218C208.407 14.794 207.879 15.25 207.231 15.586C206.583 15.922 205.863 16.09 205.071 16.09ZM205.215 14.83C205.911 14.83 206.529 14.668 207.069 14.344C207.621 14.02 208.053 13.576 208.365 13.012C208.689 12.436 208.851 11.794 208.851 11.086C208.851 10.366 208.689 9.724 208.365 9.16C208.053 8.596 207.621 8.152 207.069 7.828C206.529 7.492 205.911 7.324 205.215 7.324C204.531 7.324 203.913 7.492 203.361 7.828C202.809 8.152 202.371 8.596 202.047 9.16C201.723 9.724 201.561 10.366 201.561 11.086C201.561 11.794 201.723 12.436 202.047 13.012C202.371 13.576 202.809 14.02 203.361 14.344C203.913 14.668 204.531 14.83 205.215 14.83ZM217.648 16C216.928 16 216.334 15.712 215.866 15.136C215.398 14.548 215.164 13.798 215.164 12.886V2.626C215.164 2.422 215.224 2.26 215.344 2.14C215.476 2.008 215.644 1.942 215.848 1.942C216.052 1.942 216.214 2.008 216.334 2.14C216.466 2.26 216.532 2.422 216.532 2.626V12.886C216.532 13.402 216.634 13.822 216.838 14.146C217.054 14.47 217.324 14.632 217.648 14.632H218.098C218.278 14.632 218.422 14.698 218.53 14.83C218.638 14.95 218.692 15.112 218.692 15.316C218.692 15.52 218.614 15.688 218.458 15.82C218.314 15.94 218.122 16 217.882 16H217.648ZM227.066 16C226.43 16 225.86 15.85 225.356 15.55C224.864 15.25 224.474 14.842 224.186 14.326C223.898 13.798 223.754 13.198 223.754 12.526V7.72H222.584C222.404 7.72 222.254 7.666 222.134 7.558C222.014 7.438 221.954 7.294 221.954 7.126C221.954 6.946 222.014 6.802 222.134 6.694C222.254 6.574 222.404 6.514 222.584 6.514H223.754V3.724C223.754 3.52 223.814 3.352 223.934 3.22C224.066 3.088 224.234 3.022 224.438 3.022C224.642 3.022 224.81 3.088 224.942 3.22C225.074 3.352 225.14 3.52 225.14 3.724V6.514H227.174C227.354 6.514 227.504 6.574 227.624 6.694C227.744 6.802 227.804 6.946 227.804 7.126C227.804 7.294 227.744 7.438 227.624 7.558C227.504 7.666 227.354 7.72 227.174 7.72H225.14V12.526C225.14 13.138 225.32 13.642 225.68 14.038C226.04 14.422 226.502 14.614 227.066 14.614H227.552C227.744 14.614 227.9 14.68 228.02 14.812C228.14 14.944 228.2 15.112 228.2 15.316C228.2 15.52 228.128 15.688 227.984 15.82C227.84 15.94 227.66 16 227.444 16H227.066ZM233.768 16C233.552 16 233.378 15.94 233.246 15.82C233.126 15.688 233.066 15.52 233.066 15.316V6.856C233.066 6.64 233.126 6.472 233.246 6.352C233.378 6.22 233.552 6.154 233.768 6.154C233.972 6.154 234.134 6.22 234.254 6.352C234.386 6.472 234.452 6.64 234.452 6.856V7.468C234.836 7.024 235.31 6.676 235.874 6.424C236.45 6.172 237.068 6.046 237.728 6.046C238.58 6.046 239.342 6.226 240.014 6.586C240.686 6.934 241.214 7.45 241.598 8.134C241.994 8.818 242.192 9.652 242.192 10.636V15.316C242.192 15.508 242.126 15.67 241.994 15.802C241.862 15.934 241.7 16 241.508 16C241.304 16 241.136 15.934 241.004 15.802C240.872 15.67 240.806 15.508 240.806 15.316V10.636C240.806 9.52 240.494 8.698 239.87 8.17C239.258 7.63 238.496 7.36 237.584 7.36C236.996 7.36 236.462 7.474 235.982 7.702C235.514 7.93 235.142 8.242 234.866 8.638C234.59 9.034 234.452 9.484 234.452 9.988V15.316C234.452 15.52 234.386 15.688 234.254 15.82C234.134 15.94 233.972 16 233.768 16ZM233.768 11.986C233.552 11.986 233.378 11.92 233.246 11.788C233.126 11.656 233.066 11.488 233.066 11.284V2.644C233.066 2.428 233.126 2.26 233.246 2.14C233.378 2.008 233.552 1.942 233.768 1.942C233.972 1.942 234.134 2.008 234.254 2.14C234.386 2.26 234.452 2.428 234.452 2.644V11.284C234.452 11.488 234.386 11.656 234.254 11.788C234.134 11.92 233.972 11.986 233.768 11.986ZM249.55 20.284C249.454 20.284 249.346 20.26 249.226 20.212C248.818 20.032 248.704 19.744 248.884 19.348L250.684 15.406L250.666 15.388L246.652 7.072C246.568 6.892 246.556 6.724 246.616 6.568C246.676 6.412 246.796 6.292 246.976 6.208C247.372 6.028 247.66 6.13 247.84 6.514L251.35 13.912L254.698 6.532C254.878 6.148 255.166 6.04 255.562 6.208C255.97 6.376 256.084 6.658 255.904 7.054L250.072 19.87C249.952 20.146 249.778 20.284 249.55 20.284ZM170.502 33C170.31 33 170.142 32.934 169.998 32.802C169.866 32.67 169.8 32.502 169.8 32.298V19.644C169.8 19.452 169.866 19.29 169.998 19.158C170.142 19.014 170.31 18.942 170.502 18.942C170.694 18.942 170.856 19.014 170.988 19.158C171.132 19.29 171.204 19.452 171.204 19.644V31.668H178.242C178.434 31.668 178.596 31.734 178.728 31.866C178.872 31.986 178.944 32.142 178.944 32.334C178.944 32.526 178.872 32.688 178.728 32.82C178.596 32.94 178.434 33 178.242 33H170.502ZM184.611 33C184.395 33 184.221 32.94 184.089 32.82C183.969 32.688 183.909 32.514 183.909 32.298V23.856C183.909 23.64 183.969 23.472 184.089 23.352C184.221 23.22 184.395 23.154 184.611 23.154C184.815 23.154 184.977 23.22 185.097 23.352C185.229 23.472 185.295 23.64 185.295 23.856V32.298C185.295 32.514 185.229 32.688 185.097 32.82C184.977 32.94 184.815 33 184.611 33ZM184.593 21.282C184.329 21.282 184.101 21.186 183.909 20.994C183.717 20.802 183.621 20.568 183.621 20.292C183.621 19.992 183.717 19.758 183.909 19.59C184.113 19.41 184.347 19.32 184.611 19.32C184.863 19.32 185.085 19.41 185.277 19.59C185.481 19.758 185.583 19.992 185.583 20.292C185.583 20.568 185.487 20.802 185.295 20.994C185.103 21.186 184.869 21.282 184.593 21.282ZM192.658 33C192.478 33 192.322 32.94 192.19 32.82C192.058 32.688 191.992 32.514 191.992 32.298V24.72H190.84C190.648 24.72 190.492 24.666 190.372 24.558C190.264 24.438 190.21 24.294 190.21 24.126C190.21 23.946 190.264 23.802 190.372 23.694C190.492 23.574 190.648 23.514 190.84 23.514H191.992V23.172C191.992 21.912 192.316 20.892 192.964 20.112C193.612 19.332 194.548 18.942 195.772 18.942C195.976 18.942 196.144 19.002 196.276 19.122C196.408 19.242 196.474 19.392 196.474 19.572C196.474 19.752 196.408 19.902 196.276 20.022C196.144 20.142 195.976 20.202 195.772 20.202C194.956 20.202 194.35 20.478 193.954 21.03C193.57 21.57 193.378 22.26 193.378 23.1V23.514H195.538C195.73 23.514 195.88 23.574 195.988 23.694C196.108 23.802 196.168 23.946 196.168 24.126C196.168 24.294 196.108 24.438 195.988 24.558C195.88 24.666 195.73 24.72 195.538 24.72H193.378V32.298C193.378 32.514 193.312 32.688 193.18 32.82C193.06 32.94 192.886 33 192.658 33ZM204.748 33.09C203.776 33.09 202.912 32.88 202.156 32.46C201.412 32.028 200.824 31.434 200.392 30.678C199.972 29.922 199.762 29.058 199.762 28.086C199.762 27.102 199.96 26.238 200.356 25.494C200.764 24.738 201.322 24.144 202.03 23.712C202.738 23.28 203.554 23.064 204.478 23.064C205.39 23.064 206.182 23.274 206.854 23.694C207.538 24.102 208.066 24.672 208.438 25.404C208.81 26.136 208.996 26.97 208.996 27.906C208.996 28.098 208.936 28.254 208.816 28.374C208.696 28.482 208.54 28.536 208.348 28.536H201.076C201.148 29.184 201.346 29.76 201.67 30.264C201.994 30.756 202.42 31.146 202.948 31.434C203.476 31.71 204.076 31.848 204.748 31.848C205.18 31.848 205.612 31.776 206.044 31.632C206.488 31.476 206.842 31.284 207.106 31.056C207.238 30.948 207.388 30.894 207.556 30.894C207.724 30.882 207.868 30.924 207.988 31.02C208.144 31.164 208.222 31.32 208.222 31.488C208.234 31.656 208.168 31.8 208.024 31.92C207.628 32.256 207.124 32.538 206.512 32.766C205.9 32.982 205.312 33.09 204.748 33.09ZM204.478 24.306C203.554 24.306 202.792 24.594 202.192 25.17C201.592 25.734 201.232 26.472 201.112 27.384H207.7C207.604 26.472 207.268 25.734 206.692 25.17C206.128 24.594 205.39 24.306 204.478 24.306ZM217.389 33.09C216.681 33.09 215.979 32.97 215.283 32.73C214.587 32.49 214.023 32.13 213.591 31.65C213.459 31.506 213.405 31.344 213.429 31.164C213.453 30.984 213.543 30.828 213.699 30.696C213.867 30.576 214.041 30.528 214.221 30.552C214.401 30.576 214.551 30.654 214.671 30.786C214.959 31.122 215.337 31.38 215.805 31.56C216.285 31.74 216.813 31.83 217.389 31.83C218.277 31.83 218.919 31.68 219.315 31.38C219.711 31.068 219.915 30.696 219.927 30.264C219.927 29.832 219.723 29.478 219.315 29.202C218.907 28.914 218.235 28.692 217.299 28.536C216.087 28.344 215.199 28.008 214.635 27.528C214.071 27.048 213.789 26.478 213.789 25.818C213.789 25.206 213.951 24.696 214.275 24.288C214.599 23.88 215.031 23.574 215.571 23.37C216.111 23.166 216.705 23.064 217.353 23.064C218.157 23.064 218.847 23.202 219.423 23.478C220.011 23.754 220.485 24.126 220.845 24.594C220.965 24.75 221.013 24.912 220.989 25.08C220.965 25.248 220.869 25.386 220.701 25.494C220.557 25.578 220.389 25.608 220.197 25.584C220.017 25.548 219.861 25.458 219.729 25.314C219.141 24.642 218.337 24.306 217.317 24.306C216.657 24.306 216.129 24.444 215.733 24.72C215.337 24.984 215.139 25.32 215.139 25.728C215.139 26.136 215.313 26.472 215.661 26.736C216.021 27 216.693 27.216 217.677 27.384C218.577 27.528 219.285 27.744 219.801 28.032C220.329 28.308 220.701 28.638 220.917 29.022C221.145 29.394 221.259 29.802 221.259 30.246C221.259 30.81 221.091 31.308 220.755 31.74C220.431 32.16 219.975 32.49 219.387 32.73C218.811 32.97 218.145 33.09 217.389 33.09ZM230.116 33C229.48 33 228.91 32.85 228.406 32.55C227.914 32.25 227.524 31.842 227.236 31.326C226.948 30.798 226.804 30.198 226.804 29.526V24.72H225.634C225.454 24.72 225.304 24.666 225.184 24.558C225.064 24.438 225.004 24.294 225.004 24.126C225.004 23.946 225.064 23.802 225.184 23.694C225.304 23.574 225.454 23.514 225.634 23.514H226.804V20.724C226.804 20.52 226.864 20.352 226.984 20.22C227.116 20.088 227.284 20.022 227.488 20.022C227.692 20.022 227.86 20.088 227.992 20.22C228.124 20.352 228.19 20.52 228.19 20.724V23.514H230.224C230.404 23.514 230.554 23.574 230.674 23.694C230.794 23.802 230.854 23.946 230.854 24.126C230.854 24.294 230.794 24.438 230.674 24.558C230.554 24.666 230.404 24.72 230.224 24.72H228.19V29.526C228.19 30.138 228.37 30.642 228.73 31.038C229.09 31.422 229.552 31.614 230.116 31.614H230.602C230.794 31.614 230.95 31.68 231.07 31.812C231.19 31.944 231.25 32.112 231.25 32.316C231.25 32.52 231.178 32.688 231.034 32.82C230.89 32.94 230.71 33 230.494 33H230.116ZM237.808 37.284C237.712 37.284 237.604 37.26 237.484 37.212C237.076 37.032 236.962 36.744 237.142 36.348L238.942 32.406L238.924 32.388L234.91 24.072C234.826 23.892 234.814 23.724 234.874 23.568C234.934 23.412 235.054 23.292 235.234 23.208C235.63 23.028 235.918 23.13 236.098 23.514L239.608 30.912L242.956 23.532C243.136 23.148 243.424 23.04 243.82 23.208C244.228 23.376 244.342 23.658 244.162 24.054L238.33 36.87C238.21 37.146 238.036 37.284 237.808 37.284ZM250.711 33C249.991 33 249.397 32.712 248.929 32.136C248.461 31.548 248.227 30.798 248.227 29.886V19.626C248.227 19.422 248.287 19.26 248.407 19.14C248.539 19.008 248.707 18.942 248.911 18.942C249.115 18.942 249.277 19.008 249.397 19.14C249.529 19.26 249.595 19.422 249.595 19.626V29.886C249.595 30.402 249.697 30.822 249.901 31.146C250.117 31.47 250.387 31.632 250.711 31.632H251.161C251.341 31.632 251.485 31.698 251.593 31.83C251.701 31.95 251.755 32.112 251.755 32.316C251.755 32.52 251.677 32.688 251.521 32.82C251.377 32.94 251.185 33 250.945 33H250.711ZM260.196 33.09C259.224 33.09 258.36 32.88 257.604 32.46C256.86 32.028 256.272 31.434 255.84 30.678C255.42 29.922 255.21 29.058 255.21 28.086C255.21 27.102 255.408 26.238 255.804 25.494C256.212 24.738 256.77 24.144 257.478 23.712C258.186 23.28 259.002 23.064 259.926 23.064C260.838 23.064 261.63 23.274 262.302 23.694C262.986 24.102 263.514 24.672 263.886 25.404C264.258 26.136 264.444 26.97 264.444 27.906C264.444 28.098 264.384 28.254 264.264 28.374C264.144 28.482 263.988 28.536 263.796 28.536H256.524C256.596 29.184 256.794 29.76 257.118 30.264C257.442 30.756 257.868 31.146 258.396 31.434C258.924 31.71 259.524 31.848 260.196 31.848C260.628 31.848 261.06 31.776 261.492 31.632C261.936 31.476 262.29 31.284 262.554 31.056C262.686 30.948 262.836 30.894 263.004 30.894C263.172 30.882 263.316 30.924 263.436 31.02C263.592 31.164 263.67 31.32 263.67 31.488C263.682 31.656 263.616 31.8 263.472 31.92C263.076 32.256 262.572 32.538 261.96 32.766C261.348 32.982 260.76 33.09 260.196 33.09ZM259.926 24.306C259.002 24.306 258.24 24.594 257.64 25.17C257.04 25.734 256.68 26.472 256.56 27.384H263.148C263.052 26.472 262.716 25.734 262.14 25.17C261.576 24.594 260.838 24.306 259.926 24.306Z" fill="white"/>
</svg>
